{
  "accessors": [
    {
      "bufferView": 2,
      "componentType": 5126,
      "count": 2822,
      "max": [
        197.598876953125,
        116.51531982421875,
        218.6874542236328
      ],
      "min": [
        -168.25762939453125,
        -33.68852233886719,
        8.670413970947266
      ],
      "type": "VEC3"
    },
    {
      "bufferView": 2,
      "byteOffset": 33864,
      "componentType": 5126,
      "count": 2822,
      "type": "VEC3"
    },
    {
      "bufferView": 1,
      "componentType": 5126,
      "count": 2822,
      "type": "VEC2"
    },
    {
      "bufferView": 0,
      "componentType": 5125,
      "count": 12288,
      "type": "SCALAR"
    },
    {
      "bufferView": 2,
      "byteOffset": 67728,
      "componentType": 5126,
      "count": 17423,
      "max": [
        188.38182067871094,
        224.75991821289063,
        381.2473449707031
      ],
      "min": [
        -163.90020751953125,
        -107.57315063476563,
        -39.5081901550293
      ],
      "type": "VEC3"
    },
    {
      "bufferView": 2,
      "byteOffset": 276804,
      "componentType": 5126,
      "count": 17423,
      "type": "VEC3"
    },
    {
      "bufferView": 1,
      "byteOffset": 22576,
      "componentType": 5126,
      "count": 17423,
      "type": "VEC2"
    },
    {
      "bufferView": 0,
      "byteOffset": 49152,
      "componentType": 5125,
      "count": 87264,
      "type": "SCALAR"
    },
    {
      "bufferView": 2,
      "byteOffset": 485880,
      "componentType": 5126,
      "count": 11501,
      "max": [
        185.3579864501953,
        173.68606567382813,
        381.25860595703125
      ],
      "min": [
        -163.8404998779297,
        -116.162353515625,
        -53.590858459472656
      ],
      "type": "VEC3"
    },
    {
      "bufferView": 2,
      "byteOffset": 623892,
      "componentType": 5126,
      "count": 11501,
      "type": "VEC3"
    },
    {
      "bufferView": 1,
      "byteOffset": 161960,
      "componentType": 5126,
      "count": 11501,
      "type": "VEC2"
    },
    {
      "bufferView": 0,
      "byteOffset": 398208,
      "componentType": 5125,
      "count": 61440,
      "type": "SCALAR"
    },
    {
      "bufferView": 2,
      "byteOffset": 761904,
      "componentType": 5126,
      "count": 4129,
      "max": [
        202.2662811279297,
        201.2006072998047,
        10.810155868530273
      ],
      "min": [
        -180.74879455566406,
        -181.81446838378906,
        -386.0496520996094
      ],
      "type": "VEC3"
    },
    {
      "bufferView": 2,
      "byteOffset": 811452,
      "componentType": 5126,
      "count": 4129,
      "type": "VEC3"
    },
    {
      "bufferView": 1,
      "byteOffset": 253968,
      "componentType": 5126,
      "count": 4129,
      "type": "VEC2"
    },
    {
      "bufferView": 0,
      "byteOffset": 643968,
      "componentType": 5125,
      "count": 23040,
      "type": "SCALAR"
    },
    {
      "bufferView": 2,
      "byteOffset": 861000,
      "componentType": 5126,
      "count": 7031,
      "max": [
        137.78619384765625,
        147.94818115234375,
        -39.67460250854492
      ],
      "min": [
        -116.2686996459961,
        -98.42765045166016,
        -295.9592590332031
      ],
      "type": "VEC3"
    },
    {
      "bufferView": 2,
      "byteOffset": 945372,
      "componentType": 5126,
      "count": 7031,
      "type": "VEC3"
    },
    {
      "bufferView": 1,
      "byteOffset": 287000,
      "componentType": 5126,
      "count": 7031,
      "type": "VEC2"
    },
    {
      "bufferView": 0,
      "byteOffset": 736128,
      "componentType": 5125,
      "count": 35328,
      "type": "SCALAR"
    },
    {
      "bufferView": 2,
      "byteOffset": 1029744,
      "componentType": 5126,
      "count": 2959,
      "max": [
        63.6341667175293,
        112.17264556884766,
        -150.4905242919922
      ],
      "min": [
        -42.1166877746582,
        91.84623718261719,
        -193.85975646972656
      ],
      "type": "VEC3"
    },
    {
      "bufferView": 2,
      "byteOffset": 1065252,
      "componentType": 5126,
      "count": 2959,
      "type": "VEC3"
    },
    {
      "bufferView": 1,
      "byteOffset": 343248,
      "componentType": 5126,
      "count": 2959,
      "type": "VEC2"
    },
    {
      "bufferView": 0,
      "byteOffset": 877440,
      "componentType": 5125,
      "count": 15360,
      "type": "SCALAR"
    },
    {
      "bufferView": 2,
      "byteOffset": 1100760,
      "componentType": 5126,
      "count": 2982,
      "max": [
        88.88269805908203,
        110.22637176513672,
        -135.99729919433594
      ],
      "min": [
        -67.36522674560547,
        69.12141418457031,
        -220.19020080566406
      ],
      "type": "VEC3"
    },
    {
      "bufferView": 2,
      "byteOffset": 1136544,
      "componentType": 5126,
      "count": 2982,
      "type": "VEC3"
    },
    {
      "bufferView": 1,
      "byteOffset": 366920,
      "componentType": 5126,
      "count": 2982,
      "type": "VEC2"
    },
    {
      "bufferView": 0,
      "byteOffset": 938880,
      "componentType": 5125,
      "count": 15360,
      "type": "SCALAR"
    },
    {
      "bufferView": 2,
      "byteOffset": 1172328,
      "componentType": 5126,
      "count": 4002,
      "max": [
        41.70563888549805,
        157.65829467773438,
        -100.62670135498047
      ],
      "min": [
        -18.86380386352539,
        128.7603302001953,
        -139.7022705078125
      ],
      "type": "VEC3"
    },
    {
      "bufferView": 2,
      "byteOffset": 1220352,
      "componentType": 5126,
      "count": 4002,
      "type": "VEC3"
    },
    {
      "bufferView": 1,
      "byteOffset": 390776,
      "componentType": 5126,
      "count": 4002,
      "type": "VEC2"
    },
    {
      "bufferView": 0,
      "byteOffset": 1000320,
      "componentType": 5125,
      "count": 20736,
      "type": "SCALAR"
    },
    {
      "bufferView": 2,
      "byteOffset": 1268376,
      "componentType": 5126,
      "count": 12913,
      "max": [
        1224.5782470703125,
        579.9818725585938,
        77.98893737792969
      ],
      "min": [
        -1183.230224609375,
        -50.686004638671875,
        -363.23284912109375
      ],
      "type": "VEC3"
    },
    {
      "bufferView": 2,
      "byteOffset": 1423332,
      "componentType": 5126,
      "count": 12913,
      "type": "VEC3"
    },
    {
      "bufferView": 3,
      "componentType": 5126,
      "count": 12913,
      "type": "VEC4"
    },
    {
      "bufferView": 1,
      "byteOffset": 422792,
      "componentType": 5126,
      "count": 12913,
      "type": "VEC2"
    },
    {
      "bufferView": 0,
      "byteOffset": 1083264,
      "componentType": 5125,
      "count": 67821,
      "type": "SCALAR"
    }
  ],
  "asset": {
    "generator": "fab-model-conversion",
    "version": "2.0"
  },
  "bufferViews": [
    {
      "buffer": 0,
      "byteLength": 1354548,
      "target": 34963
    },
    {
      "buffer": 0,
      "byteLength": 526096,
      "byteOffset": 1354548,
      "byteStride": 8,
      "target": 34962
    },
    {
      "buffer": 0,
      "byteLength": 1578288,
      "byteOffset": 1880644,
      "byteStride": 12,
      "target": 34962
    },
    {
      "buffer": 0,
      "byteLength": 206608,
      "byteOffset": 3458932,
      "byteStride": 16,
      "target": 34962
    }
  ],
  "buffers": [
    {
      "byteLength": 3665540,
      "uri": "scene.bin"
    }
  ],
  "extensionsUsed": [
    "KHR_materials_specular",
    "KHR_materials_clearcoat",
    "KHR_materials_transmission"
  ],
  "images": [
    {
      "uri": "textures/Material.001_baseColor.jpeg"
    },
    {
      "uri": "textures/Material.001_metallicRoughness.jpeg"
    },
    {
      "uri": "textures/Material.001_normal.jpeg"
    }
  ],
  "materials": [
    {
      "doubleSided": true,
      "extensions": {
        "KHR_materials_specular": {
          "specularFactor": 0.3482799190120935
        }
      },
      "name": "Mat.6",
      "pbrMetallicRoughness": {
        "baseColorFactor": [
          1.0,
          0.416667,
          0.0,
          1.0
        ],
        "metallicFactor": 0.0,
        "roughnessFactor": 0.475963555442059
      }
    },
    {
      "doubleSided": true,
      "name": "Mat.5",
      "pbrMetallicRoughness": {
        "baseColorFactor": [
          0.446668,
          0.56824,
          0.661863,
          1.0
        ],
        "metallicFactor": 0.0,
        "roughnessFactor": 0.6218877113620196
      }
    },
    {
      "doubleSided": true,
      "name": "Mat.7",
      "pbrMetallicRoughness": {
        "baseColorFactor": [
          0.014343600000000015,
          0.20442599999999994,
          0.467202,
          1.0
        ],
        "metallicFactor": 0.0,
        "roughnessFactor": 0.5793264992186977
      }
    },
    {
      "alphaMode": "BLEND",
      "doubleSided": true,
      "extensions": {
        "KHR_materials_clearcoat": {
          "clearcoatFactor": 0.2570773215621181,
          "clearcoatRoughnessFactor": 0.3908411311554153
        },
        "KHR_materials_specular": {
          "specularFactor": 0.21451610941879626
        },
        "KHR_materials_transmission": {
          "transmissionFactor": 1
        }
      },
      "name": "Mat.4",
      "pbrMetallicRoughness": {
        "baseColorFactor": [
          1.0,
          1.0,
          1.0,
          0.25
        ],
        "metallicFactor": 0.0,
        "roughnessFactor": 0.36044026533875684
      }
    },
    {
      "doubleSided": true,
      "extensions": {
        "KHR_materials_specular": {
          "specularFactor": 0.09899281931549411
        }
      },
      "name": "material",
      "pbrMetallicRoughness": {
        "baseColorFactor": [
          0.08239449954246672,
          0.04192329591197314,
          0.14430706441529761,
          1.0
        ],
        "metallicFactor": 0.0,
        "roughnessFactor": 0.552786
      }
    },
    {
      "doubleSided": true,
      "name": "Mat.2",
      "pbrMetallicRoughness": {
        "baseColorFactor": [
          0.00309542,
          0.00309542,
          0.00309542,
          1.0
        ],
        "metallicFactor": 0.0,
        "roughnessFactor": 0.3239592263587667
      }
    },
    {
      "doubleSided": true,
      "name": "Mat.1",
      "pbrMetallicRoughness": {
        "metallicFactor": 0.0,
        "roughnessFactor": 0.43340234329873717
      }
    },
    {
      "doubleSided": true,
      "name": "Mat.3",
      "pbrMetallicRoughness": {
        "baseColorFactor": [
          0.0077725,
          0.008462,
          0.0100217,
          1.0
        ],
        "metallicFactor": 0.0,
        "roughnessFactor": 0.22059628258212793
      }
    },
    {
      "doubleSided": true,
      "extensions": {
        "KHR_materials_specular": {
          "specularColorFactor": [
            1.0,
            1.0,
            1.0
          ],
          "specularFactor": 0.0
        }
      },
      "name": "Material.001",
      "normalTexture": {
        "index": 2
      },
      "pbrMetallicRoughness": {
        "baseColorFactor": [
          0.7374110014653218,
          0.7374110014653218,
          0.7374110014653218,
          1.0
        ],
        "baseColorTexture": {
          "index": 0
        },
        "metallicFactor": 0.0,
        "metallicRoughnessTexture": {
          "index": 1
        },
        "roughnessFactor": 0.5975670187086929
      }
    }
  ],
  "meshes": [
    {
      "name": "Object_0",
      "primitives": [
        {
          "attributes": {
            "NORMAL": 1,
            "POSITION": 0,
            "TEXCOORD_0": 2
          },
          "indices": 3,
          "material": 0,
          "mode": 4
        }
      ]
    },
    {
      "name": "Object_1",
      "primitives": [
        {
          "attributes": {
            "NORMAL": 5,
            "POSITION": 4,
            "TEXCOORD_0": 6
          },
          "indices": 7,
          "material": 1,
          "mode": 4
        }
      ]
    },
    {
      "name": "Object_2",
      "primitives": [
        {
          "attributes": {
            "NORMAL": 9,
            "POSITION": 8,
            "TEXCOORD_0": 10
          },
          "indices": 11,
          "material": 2,
          "mode": 4
        }
      ]
    },
    {
      "name": "Object_3",
      "primitives": [
        {
          "attributes": {
            "NORMAL": 13,
            "POSITION": 12,
            "TEXCOORD_0": 14
          },
          "indices": 15,
          "material": 3,
          "mode": 4
        }
      ]
    },
    {
      "name": "Object_4",
      "primitives": [
        {
          "attributes": {
            "NORMAL": 17,
            "POSITION": 16,
            "TEXCOORD_0": 18
          },
          "indices": 19,
          "material": 4,
          "mode": 4
        }
      ]
    },
    {
      "name": "Object_5",
      "primitives": [
        {
          "attributes": {
            "NORMAL": 21,
            "POSITION": 20,
            "TEXCOORD_0": 22
          },
          "indices": 23,
          "material": 5,
          "mode": 4
        }
      ]
    },
    {
      "name": "Object_6",
      "primitives": [
        {
          "attributes": {
            "NORMAL": 25,
            "POSITION": 24,
            "TEXCOORD_0": 26
          },
          "indices": 27,
          "material": 6,
          "mode": 4
        }
      ]
    },
    {
      "name": "Object_7",
      "primitives": [
        {
          "attributes": {
            "NORMAL": 29,
            "POSITION": 28,
            "TEXCOORD_0": 30
          },
          "indices": 31,
          "material": 7,
          "mode": 4
        }
      ]
    },
    {
      "name": "Object_8",
      "primitives": [
        {
          "attributes": {
            "NORMAL": 33,
            "POSITION": 32,
            "TANGENT": 34,
            "TEXCOORD_0": 35
          },
          "indices": 36,
          "material": 8,
          "mode": 4
        }
      ]
    }
  ],
  "nodes": [
    {
      "children": [
        1
      ],
      "matrix": [
        1.0,
        0.0,
        0.0,
        0.0,
        0.0,
        2.220446049250313e-16,
        -1.0,
        0.0,
        0.0,
        1.0,
        2.220446049250313e-16,
        0.0,
        0.0,
        0.0,
        0.0,
        1.0
      ],
      "name": "Sketchfab_model"
    },
    {
      "children": [
        2
      ],
      "name": "root"
    },
    {
      "children": [
        3,
        12
      ],
      "matrix": [
        1.0,
        0.0,
        0.0,
        0.0,
        0.0,
        2.220446049250313e-16,
        1.0,
        0.0,
        0.0,
        -1.0,
        2.220446049250313e-16,
        0.0,
        0.0,
        0.0,
        0.0,
        1.0
      ],
      "name": "GLTF_SceneRootNode"
    },
    {
      "children": [
        4,
        5,
        6,
        7,
        8,
        9,
        10,
        11
      ],
      "matrix": [
        0.009999999776482582,
        0.0,
        0.0,
        0.0,
        0.0,
        -1.6858739316326353e-09,
        0.00999999977648244,
        0.0,
        0.0,
        -0.00999999977648244,
        -1.6858739316326353e-09,
        0.0,
        -0.10758738219738007,
        3.807429790496826,
        0.009379254654049873,
        1.0
      ],
      "name": "arm_1_1"
    },
    {
      "mesh": 0,
      "name": "Object_4"
    },
    {
      "mesh": 1,
      "name": "Object_5"
    },
    {
      "mesh": 2,
      "name": "Object_6"
    },
    {
      "mesh": 3,
      "name": "Object_7"
    },
    {
      "mesh": 4,
      "name": "Object_8"
    },
    {
      "mesh": 5,
      "name": "Object_9"
    },
    {
      "mesh": 6,
      "name": "Object_10"
    },
    {
      "mesh": 7,
      "name": "Object_11"
    },
    {
      "children": [
        13
      ],
      "matrix": [
        0.03021652065217495,
        0.0,
        0.0,
        0.0,
        0.0,
        -5.094124561076647e-09,
        0.03021652065217452,
        0.0,
        0.0,
        -0.03021652065217452,
        -5.094124561076647e-09,
        0.0,
        3.035381555557251,
        -8.977374076843262,
        -6.046285152435303,
        1.0
      ],
      "name": "Aset_nature_rock_XL_vceicdsga_LOD0_2"
    },
    {
      "mesh": 8,
      "name": "Object_13"
    }
  ],
  "samplers": [
    {
      "magFilter": 9729,
      "minFilter": 9987,
      "wrapS": 10497,
      "wrapT": 10497
    }
  ],
  "scene": 0,
  "scenes": [
    {
      "name": "Sketchfab_Scene",
      "nodes": [
        0
      ]
    }
  ],
  "textures": [
    {
      "sampler": 0,
      "source": 0
    },
    {
      "sampler": 0,
      "source": 1
    },
    {
      "sampler": 0,
      "source": 2
    }
  ]
}
